<svg width="558" height="312" viewBox="0 0 558 312" fill="none" xmlns="http://www.w3.org/2000/svg">
<path d="M275.818 310.182C277.575 311.939 280.425 311.939 282.182 310.182L310.82 281.544C312.577 279.787 312.577 276.938 310.82 275.18C309.062 273.423 306.213 273.423 304.456 275.18L279 300.636L253.544 275.18C251.787 273.423 248.938 273.423 247.18 275.18C245.423 276.938 245.423 279.787 247.18 281.544L275.818 310.182ZM274.5 200L274.5 307L283.5 307L283.5 200L274.5 200Z" fill="black"/>
<path fill-rule="evenodd" clip-rule="evenodd" d="M0 200H420.448L558 0H137.552L0 200Z" fill="white"/>
<path d="M132.553 126V67.8182H139.599V119.75H166.644V126H132.553ZM177.553 126V67.8182H212.667V74.0682H184.599V93.7273H210.849V99.9773H184.599V119.75H213.121V126H177.553ZM243.32 126H225.366V67.8182H244.116C249.76 67.8182 254.589 68.983 258.604 71.3125C262.62 73.6231 265.697 76.947 267.837 81.2841C269.978 85.6023 271.048 90.7727 271.048 96.7955C271.048 102.856 269.968 108.074 267.809 112.449C265.65 116.805 262.506 120.157 258.377 122.506C254.248 124.835 249.229 126 243.32 126ZM232.411 119.75H242.866C247.676 119.75 251.663 118.822 254.826 116.966C257.989 115.11 260.347 112.468 261.9 109.04C263.453 105.612 264.229 101.53 264.229 96.7955C264.229 92.0985 263.462 88.0549 261.928 84.6648C260.394 81.2557 258.103 78.642 255.053 76.8239C252.004 74.9867 248.207 74.0682 243.661 74.0682H232.411V119.75ZM354.457 96.9091C354.457 103.045 353.349 108.348 351.133 112.818C348.917 117.288 345.877 120.735 342.013 123.159C338.15 125.583 333.737 126.795 328.775 126.795C323.813 126.795 319.4 125.583 315.536 123.159C311.673 120.735 308.633 117.288 306.417 112.818C304.201 108.348 303.093 103.045 303.093 96.9091C303.093 90.7727 304.201 85.4697 306.417 81C308.633 76.5303 311.673 73.0833 315.536 70.6591C319.4 68.2348 323.813 67.0227 328.775 67.0227C333.737 67.0227 338.15 68.2348 342.013 70.6591C345.877 73.0833 348.917 76.5303 351.133 81C353.349 85.4697 354.457 90.7727 354.457 96.9091ZM347.638 96.9091C347.638 91.8712 346.796 87.6193 345.11 84.1534C343.443 80.6875 341.18 78.0644 338.32 76.2841C335.479 74.5038 332.298 73.6136 328.775 73.6136C325.252 73.6136 322.061 74.5038 319.201 76.2841C316.36 78.0644 314.097 80.6875 312.411 84.1534C310.745 87.6193 309.911 91.8712 309.911 96.9091C309.911 101.947 310.745 106.199 312.411 109.665C314.097 113.131 316.36 115.754 319.201 117.534C322.061 119.314 325.252 120.205 328.775 120.205C332.298 120.205 335.479 119.314 338.32 117.534C341.18 115.754 343.443 113.131 345.11 109.665C346.796 106.199 347.638 101.947 347.638 96.9091ZM412.44 67.8182V126H405.621L373.917 80.3182H373.349V126H366.303V67.8182H373.121L404.94 113.614H405.508V67.8182H412.44Z" fill="black"/>
</svg>
