<svg width="558" height="312" viewBox="0 0 558 312" fill="none" xmlns="http://www.w3.org/2000/svg">
<path d="M275.818 310.182C277.575 311.939 280.425 311.939 282.182 310.182L310.82 281.544C312.577 279.787 312.577 276.938 310.82 275.18C309.062 273.423 306.213 273.423 304.456 275.18L279 300.636L253.544 275.18C251.787 273.423 248.938 273.423 247.18 275.18C245.423 276.938 245.423 279.787 247.18 281.544L275.818 310.182ZM274.5 200L274.5 307L283.5 307L283.5 200L274.5 200Z" fill="black"/>
<path fill-rule="evenodd" clip-rule="evenodd" d="M0 200H420.448L558 0H137.552L0 200Z" fill="white"/>
<path d="M117.717 126V67.8182H124.763V119.75H151.808V126H117.717ZM162.717 126V67.8182H197.831V74.0682H169.763V93.7273H196.013V99.9773H169.763V119.75H198.286V126H162.717ZM228.484 126H210.53V67.8182H229.28C234.924 67.8182 239.753 68.983 243.768 71.3125C247.784 73.6231 250.861 76.947 253.001 81.2841C255.142 85.6023 256.212 90.7727 256.212 96.7955C256.212 102.856 255.132 108.074 252.973 112.449C250.814 116.805 247.67 120.157 243.541 122.506C239.412 124.835 234.393 126 228.484 126ZM217.575 119.75H228.03C232.84 119.75 236.827 118.822 239.99 116.966C243.153 115.11 245.511 112.468 247.064 109.04C248.617 105.612 249.393 101.53 249.393 96.7955C249.393 92.0985 248.626 88.0549 247.092 84.6648C245.558 81.2557 243.267 78.642 240.217 76.8239C237.168 74.9867 233.371 74.0682 228.825 74.0682H217.575V119.75ZM339.621 96.9091C339.621 103.045 338.513 108.348 336.297 112.818C334.081 117.288 331.041 120.735 327.178 123.159C323.314 125.583 318.901 126.795 313.939 126.795C308.977 126.795 304.564 125.583 300.7 123.159C296.837 120.735 293.797 117.288 291.581 112.818C289.365 108.348 288.257 103.045 288.257 96.9091C288.257 90.7727 289.365 85.4697 291.581 81C293.797 76.5303 296.837 73.0833 300.7 70.6591C304.564 68.2348 308.977 67.0227 313.939 67.0227C318.901 67.0227 323.314 68.2348 327.178 70.6591C331.041 73.0833 334.081 76.5303 336.297 81C338.513 85.4697 339.621 90.7727 339.621 96.9091ZM332.803 96.9091C332.803 91.8712 331.96 87.6193 330.274 84.1534C328.607 80.6875 326.344 78.0644 323.484 76.2841C320.643 74.5038 317.462 73.6136 313.939 73.6136C310.416 73.6136 307.225 74.5038 304.365 76.2841C301.524 78.0644 299.261 80.6875 297.575 84.1534C295.909 87.6193 295.075 91.8712 295.075 96.9091C295.075 101.947 295.909 106.199 297.575 109.665C299.261 113.131 301.524 115.754 304.365 117.534C307.225 119.314 310.416 120.205 313.939 120.205C317.462 120.205 320.643 119.314 323.484 117.534C326.344 115.754 328.607 113.131 330.274 109.665C331.96 106.199 332.803 101.947 332.803 96.9091ZM351.467 126V67.8182H386.354V74.0682H358.513V93.7273H383.74V99.9773H358.513V126H351.467ZM398.42 126V67.8182H433.307V74.0682H405.466V93.7273H430.693V99.9773H405.466V126H398.42Z" fill="black"/>
</svg>
