<svg width="412" height="525" viewBox="0 0 412 525" fill="none" xmlns="http://www.w3.org/2000/svg">
<path d="M202.818 523.182C204.575 524.939 207.425 524.939 209.182 523.182L237.82 494.544C239.577 492.787 239.577 489.938 237.82 488.18C236.062 486.423 233.213 486.423 231.456 488.18L206 513.636L180.544 488.18C178.787 486.423 175.938 486.423 174.18 488.18C172.423 489.938 172.423 492.787 174.18 494.544L202.818 523.182ZM201.5 413L201.5 520L210.5 520L210.5 413L201.5 413Z" fill="black"/>
<rect x="0.938965" y="206" width="290" height="290" transform="rotate(-45 0.938965 206)" fill="white"/>
<path d="M108.255 175.818V234H101.55V175.818H108.255ZM138.262 234.909C134.323 234.909 130.866 233.972 127.893 232.097C124.938 230.222 122.628 227.598 120.961 224.227C119.313 220.856 118.489 216.917 118.489 212.409C118.489 207.864 119.313 203.896 120.961 200.506C122.628 197.116 124.938 194.483 127.893 192.608C130.866 190.733 134.323 189.795 138.262 189.795C142.201 189.795 145.648 190.733 148.603 192.608C151.576 194.483 153.887 197.116 155.535 200.506C157.201 203.896 158.035 207.864 158.035 212.409C158.035 216.917 157.201 220.856 155.535 224.227C153.887 227.598 151.576 230.222 148.603 232.097C145.648 233.972 142.201 234.909 138.262 234.909ZM138.262 228.886C141.254 228.886 143.717 228.119 145.648 226.585C147.58 225.051 149.01 223.034 149.938 220.534C150.866 218.034 151.33 215.326 151.33 212.409C151.33 209.492 150.866 206.775 149.938 204.256C149.01 201.737 147.58 199.701 145.648 198.148C143.717 196.595 141.254 195.818 138.262 195.818C135.27 195.818 132.808 196.595 130.876 198.148C128.944 199.701 127.514 201.737 126.586 204.256C125.658 206.775 125.194 209.492 125.194 212.409C125.194 215.326 125.658 218.034 126.586 220.534C127.514 223.034 128.944 225.051 130.876 226.585C132.808 228.119 135.27 228.886 138.262 228.886ZM185.996 234.909C182.057 234.909 178.601 233.972 175.627 232.097C172.673 230.222 170.362 227.598 168.695 224.227C167.048 220.856 166.224 216.917 166.224 212.409C166.224 207.864 167.048 203.896 168.695 200.506C170.362 197.116 172.673 194.483 175.627 192.608C178.601 190.733 182.057 189.795 185.996 189.795C189.936 189.795 193.383 190.733 196.337 192.608C199.311 194.483 201.621 197.116 203.269 200.506C204.936 203.896 205.769 207.864 205.769 212.409C205.769 216.917 204.936 220.856 203.269 224.227C201.621 227.598 199.311 230.222 196.337 232.097C193.383 233.972 189.936 234.909 185.996 234.909ZM185.996 228.886C188.989 228.886 191.451 228.119 193.383 226.585C195.315 225.051 196.745 223.034 197.673 220.534C198.601 218.034 199.065 215.326 199.065 212.409C199.065 209.492 198.601 206.775 197.673 204.256C196.745 201.737 195.315 199.701 193.383 198.148C191.451 196.595 188.989 195.818 185.996 195.818C183.004 195.818 180.542 196.595 178.61 198.148C176.678 199.701 175.248 201.737 174.32 204.256C173.392 206.775 172.928 209.492 172.928 212.409C172.928 215.326 173.392 218.034 174.32 220.534C175.248 223.034 176.678 225.051 178.61 226.585C180.542 228.119 183.004 228.886 185.996 228.886ZM216.004 250.364V190.364H222.481V197.295H223.276C223.769 196.538 224.451 195.572 225.322 194.398C226.212 193.205 227.481 192.144 229.129 191.216C230.795 190.269 233.049 189.795 235.89 189.795C239.564 189.795 242.803 190.714 245.606 192.551C248.409 194.388 250.596 196.992 252.168 200.364C253.74 203.735 254.526 207.712 254.526 212.295C254.526 216.917 253.74 220.922 252.168 224.312C250.596 227.684 248.418 230.297 245.634 232.153C242.85 233.991 239.64 234.909 236.004 234.909C233.201 234.909 230.956 234.445 229.271 233.517C227.585 232.57 226.288 231.5 225.379 230.307C224.469 229.095 223.769 228.091 223.276 227.295H222.708V250.364H216.004ZM222.594 212.182C222.594 215.477 223.077 218.384 224.043 220.903C225.009 223.403 226.42 225.364 228.276 226.784C230.132 228.186 232.405 228.886 235.094 228.886C237.897 228.886 240.237 228.148 242.112 226.67C244.005 225.174 245.426 223.167 246.373 220.648C247.339 218.11 247.822 215.288 247.822 212.182C247.822 209.114 247.348 206.348 246.401 203.886C245.473 201.405 244.062 199.445 242.168 198.006C240.293 196.547 237.935 195.818 235.094 195.818C232.367 195.818 230.076 196.509 228.219 197.892C226.363 199.256 224.962 201.169 224.015 203.631C223.068 206.074 222.594 208.924 222.594 212.182ZM267.14 209.455C267.14 202.295 268.068 195.714 269.924 189.71C271.799 183.687 274.469 178.148 277.935 173.091H283.844C282.481 174.966 281.202 177.277 280.009 180.023C278.835 182.75 277.803 185.752 276.913 189.028C276.022 192.286 275.322 195.657 274.81 199.142C274.318 202.627 274.072 206.064 274.072 209.455C274.072 213.962 274.507 218.536 275.379 223.176C276.25 227.816 277.424 232.125 278.901 236.102C280.379 240.08 282.026 243.318 283.844 245.818H277.935C274.469 240.761 271.799 235.231 269.924 229.227C268.068 223.205 267.14 216.614 267.14 209.455ZM308.056 209.455C308.056 216.614 307.119 223.205 305.244 229.227C303.388 235.231 300.727 240.761 297.261 245.818H291.352C292.715 243.943 293.984 241.633 295.158 238.886C296.352 236.159 297.393 233.167 298.283 229.909C299.174 226.633 299.865 223.252 300.357 219.767C300.869 216.263 301.124 212.826 301.124 209.455C301.124 204.947 300.689 200.373 299.817 195.733C298.946 191.093 297.772 186.784 296.295 182.807C294.817 178.83 293.17 175.591 291.352 173.091H297.261C300.727 178.148 303.388 183.687 305.244 189.71C307.119 195.714 308.056 202.295 308.056 209.455Z" fill="black"/>
</svg>
