<svg width="400" height="312" viewBox="0 0 400 312" fill="none" xmlns="http://www.w3.org/2000/svg">
<rect width="400" height="200" fill="white"/>
<path d="M196.818 310.182C198.575 311.939 201.425 311.939 203.182 310.182L231.82 281.544C233.577 279.787 233.577 276.938 231.82 275.18C230.062 273.423 227.213 273.423 225.456 275.18L200 300.636L174.544 275.18C172.787 273.423 169.938 273.423 168.18 275.18C166.423 276.938 166.423 279.787 168.18 281.544L196.818 310.182ZM195.5 200L195.5 307L204.5 307L204.5 200L195.5 200Z" fill="black"/>
<path d="M127.926 85.3636C127.585 82.4848 126.203 80.25 123.778 78.6591C121.354 77.0682 118.381 76.2727 114.858 76.2727C112.282 76.2727 110.028 76.6894 108.097 77.5227C106.184 78.3561 104.688 79.5019 103.608 80.9602C102.547 82.4186 102.017 84.0758 102.017 85.9318C102.017 87.4848 102.386 88.8201 103.125 89.9375C103.883 91.036 104.848 91.9545 106.023 92.6932C107.197 93.4129 108.428 94.0095 109.716 94.483C111.004 94.9375 112.188 95.3068 113.267 95.5909L119.176 97.1818C120.691 97.5795 122.377 98.1288 124.233 98.8295C126.108 99.5303 127.898 100.487 129.602 101.699C131.326 102.892 132.746 104.426 133.864 106.301C134.981 108.176 135.54 110.477 135.54 113.205C135.54 116.348 134.716 119.189 133.068 121.727C131.439 124.265 129.053 126.282 125.909 127.778C122.784 129.275 118.987 130.023 114.517 130.023C110.35 130.023 106.742 129.35 103.693 128.006C100.663 126.661 98.2765 124.786 96.5341 122.381C94.8106 119.975 93.8352 117.182 93.608 114H100.881C101.07 116.197 101.809 118.015 103.097 119.455C104.403 120.875 106.051 121.936 108.04 122.636C110.047 123.318 112.206 123.659 114.517 123.659C117.206 123.659 119.621 123.223 121.761 122.352C123.902 121.462 125.597 120.231 126.847 118.659C128.097 117.068 128.722 115.212 128.722 113.091C128.722 111.159 128.182 109.587 127.102 108.375C126.023 107.163 124.602 106.178 122.841 105.42C121.08 104.663 119.176 104 117.131 103.432L109.972 101.386C105.426 100.08 101.828 98.214 99.1761 95.7898C96.5246 93.3655 95.1989 90.1932 95.1989 86.2727C95.1989 83.0151 96.0795 80.1742 97.8409 77.75C99.6212 75.3068 102.008 73.4129 105 72.0682C108.011 70.7045 111.373 70.0227 115.085 70.0227C118.835 70.0227 122.169 70.6951 125.085 72.0398C128.002 73.3655 130.313 75.1837 132.017 77.4943C133.741 79.8049 134.65 82.428 134.744 85.3636H127.926ZM164.51 129.909C160.305 129.909 156.679 128.981 153.629 127.125C150.599 125.25 148.26 122.636 146.612 119.284C144.983 115.913 144.169 111.992 144.169 107.523C144.169 103.053 144.983 99.1136 146.612 95.7045C148.26 92.2765 150.552 89.6061 153.487 87.6932C156.442 85.7614 159.889 84.7955 163.828 84.7955C166.101 84.7955 168.345 85.1742 170.561 85.9318C172.777 86.6894 174.794 87.9205 176.612 89.625C178.43 91.3106 179.879 93.5455 180.959 96.3295C182.038 99.1136 182.578 102.542 182.578 106.614V109.455H148.942V103.659H175.76C175.76 101.197 175.268 99 174.283 97.0682C173.317 95.1364 171.934 93.6117 170.135 92.4943C168.355 91.3769 166.252 90.8182 163.828 90.8182C161.158 90.8182 158.847 91.4811 156.896 92.8068C154.964 94.1136 153.478 95.8182 152.436 97.9205C151.394 100.023 150.874 102.277 150.874 104.682V108.545C150.874 111.841 151.442 114.634 152.578 116.926C153.733 119.199 155.334 120.932 157.379 122.125C159.425 123.299 161.802 123.886 164.51 123.886C166.271 123.886 167.862 123.64 169.283 123.148C170.722 122.636 171.963 121.879 173.004 120.875C174.046 119.852 174.851 118.583 175.419 117.068L181.896 118.886C181.214 121.083 180.069 123.015 178.459 124.682C176.849 126.33 174.86 127.617 172.493 128.545C170.125 129.455 167.464 129.909 164.51 129.909ZM211.754 85.3636V91.0455H189.141V85.3636H211.754ZM195.732 74.9091H202.436V116.5C202.436 118.394 202.711 119.814 203.26 120.761C203.828 121.689 204.548 122.314 205.419 122.636C206.309 122.939 207.247 123.091 208.232 123.091C208.97 123.091 209.576 123.053 210.05 122.977C210.523 122.883 210.902 122.807 211.186 122.75L212.55 128.773C212.095 128.943 211.461 129.114 210.646 129.284C209.832 129.473 208.8 129.568 207.55 129.568C205.656 129.568 203.8 129.161 201.982 128.347C200.182 127.532 198.686 126.292 197.493 124.625C196.319 122.958 195.732 120.856 195.732 118.318V74.9091ZM249.339 111.159V85.3636H256.044V129H249.339V121.614H248.885C247.862 123.83 246.271 125.714 244.112 127.267C241.953 128.801 239.226 129.568 235.93 129.568C233.203 129.568 230.779 128.972 228.658 127.778C226.536 126.566 224.87 124.748 223.658 122.324C222.446 119.881 221.839 116.803 221.839 113.091V85.3636H228.544V112.636C228.544 115.818 229.434 118.356 231.214 120.25C233.014 122.144 235.305 123.091 238.089 123.091C239.756 123.091 241.451 122.665 243.175 121.812C244.917 120.96 246.375 119.653 247.55 117.892C248.743 116.131 249.339 113.886 249.339 111.159ZM268.324 145.364V85.3636H274.801V92.2955H275.597C276.089 91.5379 276.771 90.572 277.642 89.3977C278.532 88.2045 279.801 87.1439 281.449 86.2159C283.116 85.2689 285.369 84.7955 288.21 84.7955C291.884 84.7955 295.123 85.714 297.926 87.5511C300.729 89.3883 302.917 91.9924 304.489 95.3636C306.061 98.7348 306.847 102.712 306.847 107.295C306.847 111.917 306.061 115.922 304.489 119.312C302.917 122.684 300.739 125.297 297.955 127.153C295.17 128.991 291.96 129.909 288.324 129.909C285.521 129.909 283.277 129.445 281.591 128.517C279.905 127.57 278.608 126.5 277.699 125.307C276.79 124.095 276.089 123.091 275.597 122.295H275.028V145.364H268.324ZM274.915 107.182C274.915 110.477 275.398 113.384 276.364 115.903C277.33 118.403 278.741 120.364 280.597 121.784C282.453 123.186 284.725 123.886 287.415 123.886C290.218 123.886 292.557 123.148 294.432 121.67C296.326 120.174 297.746 118.167 298.693 115.648C299.659 113.11 300.142 110.288 300.142 107.182C300.142 104.114 299.669 101.348 298.722 98.8864C297.794 96.4053 296.383 94.4451 294.489 93.0057C292.614 91.5473 290.256 90.8182 287.415 90.8182C284.688 90.8182 282.396 91.5095 280.54 92.892C278.684 94.2557 277.282 96.1686 276.335 98.6307C275.388 101.074 274.915 103.924 274.915 107.182Z" fill="black"/>
</svg>
