<svg width="600" height="312" viewBox="0 0 600 312" fill="none" xmlns="http://www.w3.org/2000/svg">
<path fill-rule="evenodd" clip-rule="evenodd" d="M500 0H100C44.7715 0 0 44.7715 0 100C0 155.228 44.7715 200 100 200H500C555.228 200 600 155.228 600 100C600 44.7715 555.228 0 500 0Z" fill="white"/>
<path d="M296.818 310.182C298.575 311.939 301.425 311.939 303.182 310.182L331.82 281.544C333.577 279.787 333.577 276.938 331.82 275.18C330.062 273.423 327.213 273.423 325.456 275.18L300 300.636L274.544 275.18C272.787 273.423 269.938 273.423 268.18 275.18C266.423 276.938 266.423 279.787 268.18 281.544L296.818 310.182ZM295.5 200L295.5 307L304.5 307L304.5 200L295.5 200Z" fill="black"/>
<path d="M231.88 81.4545C231.454 77.8561 229.726 75.0625 226.696 73.0739C223.665 71.0852 219.949 70.0909 215.545 70.0909C212.325 70.0909 209.508 70.6117 207.093 71.6534C204.702 72.6951 202.832 74.1274 201.483 75.9503C200.157 77.7732 199.494 79.8447 199.494 82.1648C199.494 84.1061 199.956 85.7751 200.879 87.1719C201.826 88.545 203.033 89.6932 204.501 90.6165C205.969 91.5161 207.508 92.2618 209.118 92.8537C210.727 93.4219 212.207 93.8835 213.556 94.2386L220.943 96.2273C222.837 96.7244 224.944 97.411 227.264 98.2869C229.608 99.1629 231.845 100.358 233.975 101.874C236.13 103.365 237.905 105.283 239.302 107.626C240.699 109.97 241.397 112.847 241.397 116.256C241.397 120.186 240.368 123.737 238.308 126.909C236.272 130.081 233.289 132.603 229.359 134.473C225.453 136.343 220.706 137.278 215.119 137.278C209.911 137.278 205.401 136.438 201.589 134.757C197.801 133.076 194.818 130.732 192.64 127.726C190.486 124.719 189.267 121.227 188.983 117.25H198.074C198.31 119.996 199.234 122.269 200.843 124.068C202.477 125.844 204.537 127.17 207.022 128.045C209.532 128.898 212.231 129.324 215.119 129.324C218.481 129.324 221.499 128.779 224.174 127.69C226.85 126.578 228.968 125.039 230.531 123.074C232.093 121.085 232.875 118.765 232.875 116.114C232.875 113.699 232.2 111.734 230.85 110.219C229.501 108.704 227.725 107.473 225.524 106.526C223.322 105.579 220.943 104.75 218.386 104.04L209.437 101.483C203.755 99.8494 199.257 97.5175 195.943 94.4872C192.628 91.4569 190.971 87.4915 190.971 82.5909C190.971 78.5189 192.072 74.9678 194.274 71.9375C196.499 68.8835 199.482 66.5161 203.223 64.8352C206.987 63.1307 211.189 62.2784 215.829 62.2784C220.517 62.2784 224.683 63.1188 228.329 64.7997C231.975 66.4569 234.863 68.7296 236.994 71.6179C239.148 74.5062 240.285 77.785 240.403 81.4545H231.88ZM278.462 81.4545V88.5568H250.195V81.4545H278.462ZM258.434 68.3864H266.815V120.375C266.815 122.742 267.158 124.518 267.844 125.702C268.555 126.862 269.454 127.643 270.543 128.045C271.656 128.424 272.828 128.614 274.059 128.614C274.982 128.614 275.74 128.566 276.332 128.472C276.924 128.353 277.397 128.259 277.752 128.188L279.457 135.716C278.888 135.929 278.095 136.142 277.077 136.355C276.059 136.592 274.769 136.71 273.207 136.71C270.839 136.71 268.519 136.201 266.246 135.183C263.997 134.165 262.127 132.615 260.636 130.531C259.168 128.448 258.434 125.82 258.434 122.648V68.3864ZM307.12 137.278C303.664 137.278 300.527 136.627 297.71 135.325C294.892 134 292.655 132.094 290.998 129.608C289.341 127.098 288.512 124.068 288.512 120.517C288.512 117.392 289.128 114.859 290.359 112.918C291.59 110.953 293.235 109.414 295.295 108.301C297.354 107.188 299.627 106.36 302.113 105.815C304.622 105.247 307.144 104.797 309.677 104.466C312.991 104.04 315.678 103.72 317.738 103.507C319.821 103.27 321.336 102.88 322.283 102.335C323.254 101.791 323.739 100.844 323.739 99.4943V99.2102C323.739 95.7064 322.781 92.9839 320.863 91.0426C318.969 89.1013 316.093 88.1307 312.234 88.1307C308.233 88.1307 305.096 89.0066 302.823 90.7585C300.55 92.5104 298.952 94.3807 298.029 96.3693L290.075 93.5284C291.495 90.214 293.389 87.6335 295.756 85.7869C298.147 83.9167 300.752 82.6146 303.569 81.8807C306.41 81.1231 309.203 80.7443 311.95 80.7443C313.701 80.7443 315.714 80.9574 317.987 81.3835C320.283 81.786 322.496 82.6264 324.627 83.9048C326.781 85.1832 328.569 87.1127 329.989 89.6932C331.41 92.2737 332.12 95.7301 332.12 100.062V136H323.739V128.614H323.313C322.745 129.797 321.798 131.064 320.472 132.413C319.147 133.763 317.383 134.911 315.181 135.858C312.979 136.805 310.292 137.278 307.12 137.278ZM308.398 129.75C311.713 129.75 314.506 129.099 316.779 127.797C319.076 126.495 320.804 124.814 321.964 122.754C323.147 120.695 323.739 118.528 323.739 116.256V108.585C323.384 109.011 322.603 109.402 321.396 109.757C320.212 110.089 318.839 110.384 317.276 110.645C315.737 110.882 314.234 111.095 312.766 111.284C311.322 111.45 310.15 111.592 309.251 111.71C307.073 111.994 305.037 112.456 303.143 113.095C301.272 113.711 299.757 114.646 298.597 115.901C297.461 117.132 296.893 118.812 296.893 120.943C296.893 123.855 297.97 126.057 300.124 127.548C302.302 129.016 305.06 129.75 308.398 129.75ZM347.417 136V81.4545H355.513V89.6932H356.081C357.076 86.9943 358.875 84.8045 361.479 83.1236C364.083 81.4427 367.019 80.6023 370.286 80.6023C370.901 80.6023 371.671 80.6141 372.594 80.6378C373.517 80.6615 374.216 80.697 374.689 80.7443V89.267C374.405 89.196 373.754 89.0895 372.736 88.9474C371.742 88.7817 370.688 88.6989 369.576 88.6989C366.924 88.6989 364.557 89.2552 362.473 90.3679C360.414 91.4569 358.78 92.9721 357.573 94.9134C356.389 96.831 355.797 99.0208 355.797 101.483V136H347.417ZM411.763 81.4545V88.5568H383.496V81.4545H411.763ZM391.735 68.3864H400.115V120.375C400.115 122.742 400.459 124.518 401.145 125.702C401.855 126.862 402.755 127.643 403.844 128.045C404.957 128.424 406.129 128.614 407.36 128.614C408.283 128.614 409.041 128.566 409.632 128.472C410.224 128.353 410.698 128.259 411.053 128.188L412.757 135.716C412.189 135.929 411.396 136.142 410.378 136.355C409.36 136.592 408.07 136.71 406.507 136.71C404.14 136.71 401.82 136.201 399.547 135.183C397.298 134.165 395.428 132.615 393.936 130.531C392.469 128.448 391.735 125.82 391.735 122.648V68.3864Z" fill="black"/>
</svg>
