<svg width="400" height="312" viewBox="0 0 400 312" fill="none" xmlns="http://www.w3.org/2000/svg">
<rect width="400" height="200" fill="white"/>
<path d="M196.818 310.182C198.575 311.939 201.425 311.939 203.182 310.182L231.82 281.544C233.577 279.787 233.577 276.938 231.82 275.18C230.062 273.423 227.213 273.423 225.456 275.18L200 300.636L174.544 275.18C172.787 273.423 169.938 273.423 168.18 275.18C166.423 276.938 166.423 279.787 168.18 281.544L196.818 310.182ZM195.5 200L195.5 307L204.5 307L204.5 200L195.5 200Z" fill="black"/>
<path d="M136.96 129L123.665 85.3636H130.71L140.142 118.773H140.597L149.915 85.3636H157.074L166.278 118.659H166.733L176.165 85.3636H183.21L169.915 129H163.324L153.778 95.4773H153.097L143.551 129H136.96ZM204.915 130.023C202.15 130.023 199.64 129.502 197.386 128.46C195.133 127.4 193.343 125.875 192.017 123.886C190.691 121.879 190.028 119.455 190.028 116.614C190.028 114.114 190.521 112.087 191.506 110.534C192.491 108.962 193.807 107.731 195.455 106.841C197.102 105.951 198.92 105.288 200.909 104.852C202.917 104.398 204.934 104.038 206.96 103.773C209.612 103.432 211.761 103.176 213.409 103.006C215.076 102.816 216.288 102.504 217.045 102.068C217.822 101.633 218.21 100.875 218.21 99.7955V99.5682C218.21 96.7652 217.443 94.5871 215.909 93.0341C214.394 91.4811 212.093 90.7045 209.006 90.7045C205.805 90.7045 203.295 91.4053 201.477 92.8068C199.659 94.2083 198.381 95.7045 197.642 97.2955L191.278 95.0227C192.415 92.3712 193.93 90.3068 195.824 88.8295C197.737 87.3333 199.82 86.2917 202.074 85.7045C204.347 85.0985 206.581 84.7955 208.778 84.7955C210.18 84.7955 211.79 84.9659 213.608 85.3068C215.445 85.6288 217.216 86.3011 218.92 87.3239C220.644 88.3466 222.074 89.8902 223.21 91.9545C224.347 94.0189 224.915 96.7841 224.915 100.25V129H218.21V123.091H217.869C217.415 124.038 216.657 125.051 215.597 126.131C214.536 127.21 213.125 128.129 211.364 128.886C209.602 129.644 207.453 130.023 204.915 130.023ZM205.938 124C208.589 124 210.824 123.479 212.642 122.438C214.479 121.396 215.862 120.051 216.79 118.403C217.737 116.756 218.21 115.023 218.21 113.205V107.068C217.926 107.409 217.301 107.722 216.335 108.006C215.388 108.271 214.29 108.508 213.04 108.716C211.809 108.905 210.606 109.076 209.432 109.227C208.277 109.36 207.339 109.473 206.619 109.568C204.877 109.795 203.248 110.165 201.733 110.676C200.237 111.169 199.025 111.917 198.097 112.92C197.188 113.905 196.733 115.25 196.733 116.955C196.733 119.284 197.595 121.045 199.318 122.239C201.061 123.413 203.267 124 205.938 124ZM237.152 129V85.3636H243.857V129H237.152ZM240.561 78.0909C239.254 78.0909 238.127 77.6458 237.18 76.7557C236.252 75.8655 235.788 74.7955 235.788 73.5455C235.788 72.2955 236.252 71.2254 237.18 70.3352C238.127 69.4451 239.254 69 240.561 69C241.868 69 242.985 69.4451 243.913 70.3352C244.86 71.2254 245.334 72.2955 245.334 73.5455C245.334 74.7955 244.86 75.8655 243.913 76.7557C242.985 77.6458 241.868 78.0909 240.561 78.0909ZM275.114 85.3636V91.0455H252.5V85.3636H275.114ZM259.091 74.9091H265.795V116.5C265.795 118.394 266.07 119.814 266.619 120.761C267.188 121.689 267.907 122.314 268.778 122.636C269.669 122.939 270.606 123.091 271.591 123.091C272.33 123.091 272.936 123.053 273.409 122.977C273.883 122.883 274.261 122.807 274.545 122.75L275.909 128.773C275.455 128.943 274.82 129.114 274.006 129.284C273.191 129.473 272.159 129.568 270.909 129.568C269.015 129.568 267.159 129.161 265.341 128.347C263.542 127.532 262.045 126.292 260.852 124.625C259.678 122.958 259.091 120.856 259.091 118.318V74.9091Z" fill="black"/>
</svg>
