<svg width="400" height="437" viewBox="0 0 400 437" fill="none" xmlns="http://www.w3.org/2000/svg">
<rect width="400" height="200" fill="white"/>
<path d="M136.96 129L123.665 85.3636H130.71L140.142 118.773H140.597L149.915 85.3636H157.074L166.278 118.659H166.733L176.165 85.3636H183.21L169.915 129H163.324L153.778 95.4773H153.097L143.551 129H136.96ZM204.915 130.023C202.15 130.023 199.64 129.502 197.386 128.46C195.133 127.4 193.343 125.875 192.017 123.886C190.691 121.879 190.028 119.455 190.028 116.614C190.028 114.114 190.521 112.087 191.506 110.534C192.491 108.962 193.807 107.731 195.455 106.841C197.102 105.951 198.92 105.288 200.909 104.852C202.917 104.398 204.934 104.038 206.96 103.773C209.612 103.432 211.761 103.176 213.409 103.006C215.076 102.816 216.288 102.504 217.045 102.068C217.822 101.633 218.21 100.875 218.21 99.7955V99.5682C218.21 96.7652 217.443 94.5871 215.909 93.0341C214.394 91.4811 212.093 90.7045 209.006 90.7045C205.805 90.7045 203.295 91.4053 201.477 92.8068C199.659 94.2083 198.381 95.7045 197.642 97.2955L191.278 95.0227C192.415 92.3712 193.93 90.3068 195.824 88.8295C197.737 87.3333 199.82 86.2917 202.074 85.7045C204.347 85.0985 206.581 84.7955 208.778 84.7955C210.18 84.7955 211.79 84.9659 213.608 85.3068C215.445 85.6288 217.216 86.3011 218.92 87.3239C220.644 88.3466 222.074 89.8902 223.21 91.9545C224.347 94.0189 224.915 96.7841 224.915 100.25V129H218.21V123.091H217.869C217.415 124.038 216.657 125.051 215.597 126.131C214.536 127.21 213.125 128.129 211.364 128.886C209.602 129.644 207.453 130.023 204.915 130.023ZM205.938 124C208.589 124 210.824 123.479 212.642 122.438C214.479 121.396 215.862 120.051 216.79 118.403C217.737 116.756 218.21 115.023 218.21 113.205V107.068C217.926 107.409 217.301 107.722 216.335 108.006C215.388 108.271 214.29 108.508 213.04 108.716C211.809 108.905 210.606 109.076 209.432 109.227C208.277 109.36 207.339 109.473 206.619 109.568C204.877 109.795 203.248 110.165 201.733 110.676C200.237 111.169 199.025 111.917 198.097 112.92C197.188 113.905 196.733 115.25 196.733 116.955C196.733 119.284 197.595 121.045 199.318 122.239C201.061 123.413 203.267 124 205.938 124ZM237.152 129V85.3636H243.857V129H237.152ZM240.561 78.0909C239.254 78.0909 238.127 77.6458 237.18 76.7557C236.252 75.8655 235.788 74.7955 235.788 73.5455C235.788 72.2955 236.252 71.2254 237.18 70.3352C238.127 69.4451 239.254 69 240.561 69C241.868 69 242.985 69.4451 243.913 70.3352C244.86 71.2254 245.334 72.2955 245.334 73.5455C245.334 74.7955 244.86 75.8655 243.913 76.7557C242.985 77.6458 241.868 78.0909 240.561 78.0909ZM275.114 85.3636V91.0455H252.5V85.3636H275.114ZM259.091 74.9091H265.795V116.5C265.795 118.394 266.07 119.814 266.619 120.761C267.188 121.689 267.907 122.314 268.778 122.636C269.669 122.939 270.606 123.091 271.591 123.091C272.33 123.091 272.936 123.053 273.409 122.977C273.883 122.883 274.261 122.807 274.545 122.75L275.909 128.773C275.455 128.943 274.82 129.114 274.006 129.284C273.191 129.473 272.159 129.568 270.909 129.568C269.015 129.568 267.159 129.161 265.341 128.347C263.542 127.532 262.045 126.292 260.852 124.625C259.678 122.958 259.091 120.856 259.091 118.318V74.9091Z" fill="black"/>
<path d="M57.1918 365.364V371.045H34.5781V365.364H57.1918ZM41.169 354.909H47.8736V396.5C47.8736 398.394 48.1482 399.814 48.6974 400.761C49.2656 401.689 49.9853 402.314 50.8565 402.636C51.7467 402.939 52.6842 403.091 53.669 403.091C54.4077 403.091 55.0137 403.053 55.4872 402.977C55.9607 402.883 56.3395 402.807 56.6236 402.75L57.9872 408.773C57.5327 408.943 56.8982 409.114 56.0838 409.284C55.2694 409.473 54.2372 409.568 52.9872 409.568C51.0933 409.568 49.2372 409.161 47.419 408.347C45.6198 407.532 44.1236 406.292 42.9304 404.625C41.7562 402.958 41.169 400.856 41.169 398.318V354.909ZM84.5355 409.909C80.5961 409.909 77.1397 408.972 74.1662 407.097C71.2116 405.222 68.901 402.598 67.2344 399.227C65.5866 395.856 64.7628 391.917 64.7628 387.409C64.7628 382.864 65.5866 378.896 67.2344 375.506C68.901 372.116 71.2116 369.483 74.1662 367.608C77.1397 365.733 80.5961 364.795 84.5355 364.795C88.4749 364.795 91.9219 365.733 94.8764 367.608C97.8499 369.483 100.161 372.116 101.808 375.506C103.475 378.896 104.308 382.864 104.308 387.409C104.308 391.917 103.475 395.856 101.808 399.227C100.161 402.598 97.8499 405.222 94.8764 407.097C91.9219 408.972 88.4749 409.909 84.5355 409.909ZM84.5355 403.886C87.5279 403.886 89.9901 403.119 91.9219 401.585C93.8537 400.051 95.2836 398.034 96.2116 395.534C97.1397 393.034 97.6037 390.326 97.6037 387.409C97.6037 384.492 97.1397 381.775 96.2116 379.256C95.2836 376.737 93.8537 374.701 91.9219 373.148C89.9901 371.595 87.5279 370.818 84.5355 370.818C81.5431 370.818 79.081 371.595 77.1491 373.148C75.2173 374.701 73.7874 376.737 72.8594 379.256C71.9313 381.775 71.4673 384.492 71.4673 387.409C71.4673 390.326 71.9313 393.034 72.8594 395.534C73.7874 398.034 75.2173 400.051 77.1491 401.585C79.081 403.119 81.5431 403.886 84.5355 403.886ZM147.838 350.818V409H135.736V350.818H147.838ZM177.249 409.852C172.836 409.852 169.019 408.915 165.8 407.04C162.599 405.146 160.127 402.513 158.385 399.142C156.643 395.752 155.771 391.822 155.771 387.352C155.771 382.845 156.643 378.905 158.385 375.534C160.127 372.144 162.599 369.511 165.8 367.636C169.019 365.742 172.836 364.795 177.249 364.795C181.661 364.795 185.468 365.742 188.669 367.636C191.889 369.511 194.37 372.144 196.112 375.534C197.855 378.905 198.726 382.845 198.726 387.352C198.726 391.822 197.855 395.752 196.112 399.142C194.37 402.513 191.889 405.146 188.669 407.04C185.468 408.915 181.661 409.852 177.249 409.852ZM177.305 400.477C179.313 400.477 180.989 399.909 182.334 398.773C183.679 397.617 184.692 396.045 185.374 394.057C186.074 392.068 186.425 389.805 186.425 387.267C186.425 384.729 186.074 382.466 185.374 380.477C184.692 378.489 183.679 376.917 182.334 375.761C180.989 374.606 179.313 374.028 177.305 374.028C175.279 374.028 173.574 374.606 172.192 375.761C170.828 376.917 169.796 378.489 169.095 380.477C168.413 382.466 168.072 384.729 168.072 387.267C168.072 389.805 168.413 392.068 169.095 394.057C169.796 396.045 170.828 397.617 172.192 398.773C173.574 399.909 175.279 400.477 177.305 400.477ZM226.311 409.852C221.898 409.852 218.082 408.915 214.862 407.04C211.661 405.146 209.19 402.513 207.447 399.142C205.705 395.752 204.834 391.822 204.834 387.352C204.834 382.845 205.705 378.905 207.447 375.534C209.19 372.144 211.661 369.511 214.862 367.636C218.082 365.742 221.898 364.795 226.311 364.795C230.724 364.795 234.531 365.742 237.732 367.636C240.951 369.511 243.432 372.144 245.175 375.534C246.917 378.905 247.788 382.845 247.788 387.352C247.788 391.822 246.917 395.752 245.175 399.142C243.432 402.513 240.951 405.146 237.732 407.04C234.531 408.915 230.724 409.852 226.311 409.852ZM226.368 400.477C228.375 400.477 230.052 399.909 231.396 398.773C232.741 397.617 233.754 396.045 234.436 394.057C235.137 392.068 235.487 389.805 235.487 387.267C235.487 384.729 235.137 382.466 234.436 380.477C233.754 378.489 232.741 376.917 231.396 375.761C230.052 374.606 228.375 374.028 226.368 374.028C224.341 374.028 222.637 374.606 221.254 375.761C219.891 376.917 218.858 378.489 218.158 380.477C217.476 382.466 217.135 384.729 217.135 387.267C217.135 389.805 217.476 392.068 218.158 394.057C218.858 396.045 219.891 397.617 221.254 398.773C222.637 399.909 224.341 400.477 226.368 400.477ZM255.658 425.364V365.364H267.589V372.693H268.129C268.66 371.519 269.427 370.326 270.43 369.114C271.453 367.883 272.779 366.86 274.408 366.045C276.055 365.212 278.101 364.795 280.544 364.795C283.726 364.795 286.661 365.629 289.351 367.295C292.04 368.943 294.19 371.434 295.8 374.767C297.41 378.081 298.214 382.239 298.214 387.239C298.214 392.106 297.429 396.216 295.857 399.568C294.304 402.902 292.182 405.43 289.493 407.153C286.822 408.858 283.83 409.71 280.516 409.71C278.167 409.71 276.169 409.322 274.521 408.545C272.893 407.769 271.557 406.794 270.516 405.619C269.474 404.426 268.679 403.223 268.129 402.011H267.76V425.364H255.658ZM267.504 387.182C267.504 389.777 267.864 392.04 268.584 393.972C269.304 395.903 270.345 397.409 271.709 398.489C273.072 399.549 274.73 400.08 276.68 400.08C278.65 400.08 280.317 399.54 281.68 398.46C283.044 397.362 284.076 395.847 284.777 393.915C285.497 391.964 285.857 389.72 285.857 387.182C285.857 384.663 285.506 382.447 284.805 380.534C284.105 378.621 283.072 377.125 281.709 376.045C280.345 374.966 278.669 374.426 276.68 374.426C274.711 374.426 273.044 374.947 271.68 375.989C270.336 377.03 269.304 378.508 268.584 380.42C267.864 382.333 267.504 384.587 267.504 387.182ZM308.953 385.676C308.953 378.631 309.891 372.144 311.766 366.216C313.66 360.288 316.548 354.795 320.43 349.739H331.993C330.516 351.614 329.143 353.905 327.874 356.614C326.605 359.303 325.497 362.258 324.55 365.477C323.603 368.697 322.864 372.03 322.334 375.477C321.804 378.905 321.538 382.305 321.538 385.676C321.538 390.165 321.993 394.701 322.902 399.284C323.83 403.848 325.08 408.091 326.652 412.011C328.243 415.932 330.023 419.142 331.993 421.642H320.43C316.548 416.585 313.66 411.093 311.766 405.165C309.891 399.237 308.953 392.741 308.953 385.676ZM359.415 385.676C359.415 392.741 358.468 399.237 356.574 405.165C354.699 411.093 351.82 416.585 347.938 421.642H336.375C337.852 419.767 339.225 417.475 340.494 414.767C341.763 412.059 342.871 409.104 343.818 405.903C344.765 402.684 345.504 399.35 346.034 395.903C346.564 392.456 346.83 389.047 346.83 385.676C346.83 381.187 346.366 376.661 345.438 372.097C344.528 367.513 343.278 363.271 341.688 359.369C340.116 355.449 338.345 352.239 336.375 349.739H347.938C351.82 354.795 354.699 360.288 356.574 366.216C358.468 372.144 359.415 378.631 359.415 385.676Z" fill="black"/>
<path d="M190.818 325.182C192.575 326.939 195.425 326.939 197.182 325.182L225.82 296.544C227.577 294.787 227.577 291.938 225.82 290.18C224.062 288.423 221.213 288.423 219.456 290.18L194 315.636L168.544 290.18C166.787 288.423 163.938 288.423 162.18 290.18C160.423 291.938 160.423 294.787 162.18 296.544L190.818 325.182ZM189.5 200L189.5 322L198.5 322L198.5 200L189.5 200Z" fill="black"/>
</svg>
